<svg width="1280" height="360" viewBox="0 0 1280 360" fill="none" xmlns="http://www.w3.org/2000/svg">
  <rect width="1280" height="360" rx="28" fill="#06090D"/>
  <rect x="1" y="1" width="1278" height="358" rx="27" stroke="#18222D"/>
  <g opacity="0.2">
    <path d="M0 58H1280" stroke="#294055"/>
    <path d="M0 118H1280" stroke="#294055"/>
    <path d="M0 178H1280" stroke="#294055"/>
    <path d="M0 238H1280" stroke="#294055"/>
    <path d="M0 298H1280" stroke="#294055"/>
    <path d="M120 0V360" stroke="#294055"/>
    <path d="M240 0V360" stroke="#294055"/>
    <path d="M360 0V360" stroke="#294055"/>
    <path d="M480 0V360" stroke="#294055"/>
    <path d="M600 0V360" stroke="#294055"/>
    <path d="M720 0V360" stroke="#294055"/>
    <path d="M840 0V360" stroke="#294055"/>
    <path d="M960 0V360" stroke="#294055"/>
    <path d="M1080 0V360" stroke="#294055"/>
    <path d="M1200 0V360" stroke="#294055"/>
  </g>
  <path d="M68 270C135 252 171 173 236 176C300 179 339 279 410 274C480 269 518 168 584 147C649 126 708 189 774 183C840 177 871 115 938 111C1004 107 1063 180 1126 177C1171 175 1210 149 1241 125" stroke="#D8B16C" stroke-width="4" stroke-linecap="round"/>
  <path d="M68 300C130 286 179 240 237 237C296 234 342 273 405 267C468 261 528 208 589 205C651 202 710 229 771 226C832 223 882 189 946 191C1010 193 1072 231 1136 224C1176 220 1211 201 1243 189" stroke="#8FC8B8" stroke-width="3" stroke-linecap="round"/>
  <circle cx="584" cy="147" r="6" fill="#D8B16C"/>
  <circle cx="938" cy="111" r="6" fill="#D8B16C"/>
  <circle cx="1126" cy="177" r="6" fill="#8FC8B8"/>
  <rect x="66" y="56" width="312" height="40" rx="20" fill="#0D141C" stroke="#24303D"/>
  <text x="90" y="81" fill="#8FC8B8" font-family="IBM Plex Mono, monospace" font-size="18" letter-spacing="2">LPG / PHYSICAL / PRICING / RISK</text>
  <text x="64" y="150" fill="#EEF3F7" font-family="Segoe UI, Arial, sans-serif" font-size="62" font-weight="700">Xavier Fan</text>
  <text x="64" y="194" fill="#9BA8B7" font-family="Segoe UI, Arial, sans-serif" font-size="24">LPG Trader focused on physical markets, pricing and risk</text>
  <text x="64" y="232" fill="#728194" font-family="Segoe UI, Arial, sans-serif" font-size="18">Physical + paper integration  /  Trade finance structuring  /  FRM</text>
  <rect x="776" y="50" width="432" height="224" rx="24" fill="#0B1016" stroke="#22303C"/>
  <rect x="808" y="84" width="172" height="68" rx="16" fill="#0F1720" stroke="#1C2833"/>
  <rect x="1002" y="84" width="172" height="68" rx="16" fill="#0F1720" stroke="#1C2833"/>
  <rect x="808" y="172" width="172" height="68" rx="16" fill="#0F1720" stroke="#1C2833"/>
  <rect x="1002" y="172" width="172" height="68" rx="16" fill="#0F1720" stroke="#1C2833"/>
  <text x="808" y="70" fill="#7EA6D1" font-family="IBM Plex Mono, monospace" font-size="16" letter-spacing="2">DESK READOUT</text>
  <text x="832" y="112" fill="#728194" font-family="IBM Plex Mono, monospace" font-size="14">FLOW</text>
  <text x="832" y="136" fill="#EEF3F7" font-family="Segoe UI, Arial, sans-serif" font-size="20" font-weight="600">Physical reality</text>
  <text x="1026" y="112" fill="#728194" font-family="IBM Plex Mono, monospace" font-size="14">SPREAD</text>
  <text x="1026" y="136" fill="#EEF3F7" font-family="Segoe UI, Arial, sans-serif" font-size="20" font-weight="600">Paper strategy</text>
  <text x="832" y="200" fill="#728194" font-family="IBM Plex Mono, monospace" font-size="14">RISK</text>
  <text x="832" y="224" fill="#EEF3F7" font-family="Segoe UI, Arial, sans-serif" font-size="20" font-weight="600">Pricing discipline</text>
  <text x="1026" y="200" fill="#728194" font-family="IBM Plex Mono, monospace" font-size="14">STRUCTURE</text>
  <text x="1026" y="224" fill="#EEF3F7" font-family="Segoe UI, Arial, sans-serif" font-size="20" font-weight="600">Trade finance</text>
  <text x="809" y="304" fill="#728194" font-family="IBM Plex Mono, monospace" font-size="15">COMMERCIAL EDGE = MARKET VIEW + HEDGE LOGIC + STRUCTURE</text>
</svg>